# Blender v2.81 (sub 16) OBJ File: 'mirr.blend'
# www.blender.org
mtllib bird.mtl
g Bird
v -0.301385 0.301385 0.301385
v -0.301385 0.301385 -0.872016
v -0.301385 -0.301385 -0.872016
v 0.301385 0.301385 0.301385
v 0.301385 0.301385 -0.872016
v -0.184042 -0.184042 0.822688
v 0.184042 -0.184042 0.822688
v -0.184042 0.184042 0.822688
v 0.077403 -0.006063 0.828158
v -0.077403 0.148742 0.828158
v -0.068808 -0.062429 0.828158
v 0.044102 -0.156317 0.828158
v -0.044102 -0.156317 0.828158
v 0.068809 -0.062429 0.828158
v 0.294596 0.229463 0.448420
v 0.294596 -0.068165 0.448420
v 0.294596 0.229463 0.677419
v 0.294596 -0.068165 0.677419
v 0.323030 0.229463 0.448420
v 0.323030 -0.068165 0.448420
v 0.323030 0.229463 0.677419
v 0.323030 -0.068165 0.677419
v 0.284937 0.144726 -1.220991
v 0.284937 0.245374 -1.220991
v 0.284937 0.144726 -1.313448
v -0.284938 0.245374 -1.313448
v -0.284938 0.338621 -1.220991
v 0.284937 0.338621 -1.313448
v 0.284733 -0.234946 -0.872016
v 0.141508 -0.234946 -0.872016
v 0.280000 -0.145554 -0.872016
v 0.146241 -0.145554 -0.872016
v 0.284733 -0.234946 -1.134758
v 0.141508 -0.234946 -1.134758
v 0.280000 -0.145554 -1.134758
v 0.146241 -0.145554 -1.134758
v 0.284733 -0.234946 -1.214415
v 0.141508 -0.234946 -1.214415
v 0.280000 -0.145554 -1.214415
v 0.146241 -0.145554 -1.214415
v 0.284733 -0.299175 -1.134758
v 0.141508 -0.299175 -1.134758
v 0.284733 -0.299175 -1.214415
v 0.141508 -0.299175 -1.214415
v 0.207985 0.301385 -0.443028
v 0.280303 0.301385 -0.443028
v 0.207985 0.301385 0.222381
v 0.280303 0.301385 0.222380
v 0.207985 0.371221 -0.443028
v 0.280303 0.371221 -0.443028
v 0.207985 0.371221 0.222381
v 0.280303 0.371221 0.222380
v 0.207985 0.449308 -0.443028
v 0.280303 0.449308 -0.443028
v 0.207985 0.449308 0.222381
v 0.280303 0.449308 0.222380
v 1.663309 0.371221 -0.443028
v 1.663309 0.371221 0.222380
v 1.663309 0.449308 -0.443028
v 1.663309 0.449308 0.222380
v 2.042538 0.393994 -0.443028
v 2.042538 0.393994 0.222380
v 2.042538 0.472081 -0.443028
v 2.042538 0.472081 0.222380
v 2.109095 0.397020 -0.441220
v 2.109095 0.397020 0.224188
v 2.109095 0.475108 -0.441220
v 2.109095 0.475108 0.224188
v 2.038095 0.569804 -0.443028
v 2.038095 0.569804 0.222380
v 2.104651 0.572830 -0.441220
v 2.104651 0.572830 0.224188
v 0.301385 -0.301385 0.301385
v 0.301385 -0.301385 -0.872016
v -0.301385 -0.301385 0.301385
v -0.301385 -0.301385 0.765165
v -0.301385 0.301385 0.765165
v 0.184042 0.184042 0.822688
v -0.077403 -0.006063 0.828158
v 0.077403 0.148742 0.828158
v 0.000000 0.009330 1.211080
v 0.000000 -0.059067 1.160661
v -0.294596 0.229463 0.448420
v -0.294596 -0.068165 0.448420
v 0.301385 0.301385 0.765165
v 0.301385 -0.301385 0.765165
v -0.294596 0.229463 0.677419
v -0.294596 -0.068165 0.677419
v -0.323030 0.229463 0.448420
v -0.323030 -0.068165 0.448420
v -0.323030 0.229463 0.677419
v -0.323030 -0.068165 0.677419
v -0.284938 0.144726 -0.872016
v -0.284938 0.245374 -0.872016
v 0.284937 0.245374 -0.872016
v 0.284937 0.144726 -0.872016
v -0.284938 0.144726 -1.220991
v -0.284938 0.245374 -1.220991
v -0.284938 0.144726 -1.313448
v 0.284937 0.245374 -1.313448
v 0.284937 0.338621 -1.220991
v -0.284938 0.338621 -1.313448
v -0.284734 -0.234946 -0.872016
v -0.141508 -0.234946 -0.872016
v -0.280000 -0.145554 -0.872016
v -0.146241 -0.145554 -0.872016
v -0.284734 -0.234946 -1.134758
v -0.141508 -0.234946 -1.134758
v -0.280000 -0.145554 -1.134758
v -0.146241 -0.145554 -1.134758
v -0.284734 -0.234946 -1.214415
v -0.141508 -0.234946 -1.214415
v -0.280000 -0.145554 -1.214415
v -0.146241 -0.145554 -1.214415
v -0.284734 -0.299175 -1.134758
v -0.141508 -0.299175 -1.134758
v -0.284734 -0.299175 -1.214415
v -0.141508 -0.299175 -1.214415
v -0.207985 0.301385 -0.443028
v -0.280303 0.301385 -0.443028
v -0.207985 0.301385 0.222381
v -0.280303 0.301385 0.222381
v -0.207985 0.371221 -0.443028
v -0.280303 0.371221 -0.443028
v -0.207985 0.371221 0.222381
v -0.280303 0.371221 0.222381
v -0.207985 0.449308 -0.443028
v -0.280303 0.449308 -0.443028
v -0.207985 0.449308 0.222381
v -0.280303 0.449308 0.222381
v -1.663309 0.371221 -0.443027
v -1.663309 0.371221 0.222381
v -1.663309 0.449308 -0.443027
v -1.663309 0.449308 0.222381
v -2.042538 0.393994 -0.443027
v -2.042538 0.393994 0.222381
v -2.042538 0.472081 -0.443027
v -2.042538 0.472081 0.222381
v -2.109095 0.397020 -0.441219
v -2.109095 0.397020 0.224189
v -2.109095 0.475108 -0.441219
v -2.109095 0.475108 0.224189
v -2.038095 0.569804 -0.443027
v -2.038095 0.569804 0.222381
v -2.104651 0.572830 -0.441219
v -2.104651 0.572830 0.224189
vt 0.545828 0.552029
vt 0.968837 0.552029
vt 0.968837 0.975038
vt 0.545828 0.975038
vt 0.533426 0.040464
vt 0.956436 0.040464
vt 0.956436 0.463473
vt 0.533426 0.463473
vt 0.956436 0.040464
vt 0.956436 0.463473
vt 0.533426 0.463473
vt 0.533426 0.040464
vt 0.956436 0.040464
vt 0.956436 0.463473
vt 0.533426 0.463473
vt 0.533426 0.040464
vt 0.956436 0.040464
vt 0.956436 0.463473
vt 0.533426 0.463473
vt 0.540414 0.543515
vt 0.961849 0.543515
vt 0.961849 0.964950
vt 0.540414 0.964950
vt 0.540414 0.543515
vt 0.961849 0.543515
vt 0.961849 0.964950
vt 0.540414 0.964950
vt 0.961849 0.543515
vt 0.961849 0.964950
vt 0.540414 0.964950
vt 0.540414 0.543515
vt 0.961849 0.543515
vt 0.961849 0.964950
vt 0.540414 0.964950
vt 0.540414 0.543515
vt 0.961849 0.543515
vt 0.961849 0.964950
vt 0.540414 0.964950
vt 0.540414 0.543515
vt 0.961849 0.543515
vt 0.961849 0.964950
vt 0.540414 0.964950
vt 0.540414 0.543515
vt 0.961849 0.964950
vt 0.540414 0.964950
vt 0.055714 0.561078
vt 0.423420 0.561078
vt 0.423420 0.928784
vt 0.540414 0.543515
vt 0.961849 0.543515
vt 0.961849 0.964950
vt 0.540414 0.964950
vt 0.540414 0.543515
vt 0.961849 0.543515
vt 0.961849 0.964950
vt 0.540414 0.964950
vt 0.540414 0.543515
vt 0.961849 0.964950
vt 0.540414 0.964950
vt 0.540414 0.543515
vt 0.961849 0.543515
vt 0.961849 0.964950
vt 0.540414 0.964950
vt 0.055714 0.561078
vt 0.423420 0.561078
vt 0.055714 0.561078
vt 0.423420 0.561078
vt 0.055714 0.561078
vt 0.423420 0.561078
vt 0.055714 0.561078
vt 0.423420 0.561078
vt 0.423420 0.928784
vt 0.961849 0.543515
vt 0.961849 0.964950
vt 0.540414 0.964950
vt 0.540414 0.543515
vt 0.961849 0.543515
vt 0.961849 0.964950
vt 0.540414 0.964950
vt 0.055714 0.561078
vt 0.423420 0.561078
vt 0.055714 0.561078
vt 0.423420 0.561078
vt 0.055714 0.561078
vt 0.423420 0.561078
vt 0.067394 0.064933
vt 0.434528 0.064933
vt 0.434528 0.432068
vt 0.067394 0.432068
vt 0.961849 0.543515
vt 0.961849 0.964950
vt 0.540414 0.964950
vt 0.540414 0.543515
vt 0.961849 0.543515
vt 0.961849 0.964950
vt 0.540414 0.964950
vt 0.961849 0.964950
vt 0.540414 0.964950
vt 0.067394 0.064933
vt 0.434528 0.064933
vt 0.067394 0.432068
vt 0.067394 0.064933
vt 0.434528 0.064933
vt 0.434528 0.432068
vt 0.067394 0.432068
vt 0.067394 0.064933
vt 0.434528 0.064933
vt 0.434528 0.432068
vt 0.067394 0.432068
vt 0.067394 0.064933
vt 0.434528 0.064933
vt 0.434528 0.432068
vt 0.540414 0.543515
vt 0.961849 0.543515
vt 0.961849 0.964950
vt 0.540414 0.964950
vt 0.533426 0.040464
vt 0.956436 0.463473
vt 0.533426 0.463473
vt 0.533426 0.040464
vt 0.956436 0.040464
vt 0.956436 0.463473
vt 0.533426 0.463473
vt 0.533426 0.040464
vt 0.956436 0.040464
vt 0.956436 0.463473
vt 0.533426 0.463473
vt 0.540414 0.543515
vt 0.961849 0.543515
vt 0.961849 0.964950
vt 0.540414 0.964950
vt 0.540414 0.543515
vt 0.961849 0.543515
vt 0.961849 0.964950
vt 0.540414 0.964950
vt 0.540414 0.543515
vt 0.961849 0.543515
vt 0.961849 0.964950
vt 0.540414 0.964950
vt 0.540414 0.543515
vt 0.961849 0.543515
vt 0.961849 0.964950
vt 0.540414 0.964950
vt 0.540414 0.543515
vt 0.961849 0.964950
vt 0.540414 0.964950
vt 0.540414 0.543515
vt 0.961849 0.543515
vt 0.961849 0.964950
vt 0.540414 0.964950
vt 0.540414 0.543515
vt 0.961849 0.543515
vt 0.961849 0.964950
vt 0.540414 0.543515
vt 0.961849 0.543515
vt 0.961849 0.964950
vt 0.540414 0.543515
vt 0.961849 0.964950
vt 0.540414 0.964950
vt 0.541576 0.541576
vt 0.954487 0.541576
vt 0.954487 0.954487
vt 0.541576 0.954487
vt 0.961849 0.543515
vt 0.540414 0.964950
vt 0.055714 0.561078
vt 0.423420 0.561078
vt 0.423420 0.928784
vt 0.055714 0.928784
vt 0.533426 0.040464
vt 0.956436 0.463473
vt 0.533426 0.463473
vt 0.533426 0.040464
vt 0.956436 0.040464
vt 0.956436 0.463473
vt 0.533426 0.463473
vt 0.956436 0.040464
vt 0.956436 0.463473
vt 0.533426 0.463473
vt 0.055714 0.561078
vt 0.423420 0.561078
vt 0.423420 0.928784
vt 0.055714 0.928784
vt 0.055714 0.561078
vt 0.423420 0.561078
vt 0.423420 0.928784
vt 0.055714 0.928784
vt 0.055714 0.561078
vt 0.423420 0.561078
vt 0.423420 0.928784
vt 0.055714 0.928784
vt 0.055714 0.561078
vt 0.423420 0.561078
vt 0.423420 0.928784
vt 0.055714 0.928784
vt 0.055714 0.561078
vt 0.423420 0.561078
vt 0.055714 0.928784
vt 0.423420 0.928784
vt 0.055714 0.928784
vt 0.055714 0.561078
vt 0.423420 0.561078
vt 0.423420 0.928784
vt 0.055714 0.561078
vt 0.423420 0.561078
vt 0.423420 0.928784
vt 0.055714 0.928784
vt 0.055714 0.561078
vt 0.423420 0.561078
vt 0.055714 0.928784
vt 0.114389 0.594950
vt 0.414352 0.594950
vt 0.414352 0.894912
vt 0.114389 0.894912
vt 0.423420 0.928784
vt 0.055714 0.561078
vt 0.423420 0.561078
vt 0.423420 0.928784
vt 0.055714 0.928784
vt 0.545828 0.552029
vt 0.968837 0.552029
vt 0.968837 0.975038
vt 0.545828 0.975038
vt 0.545828 0.552029
vt 0.968837 0.552029
vt 0.968837 0.975038
vt 0.545828 0.975038
vt 0.545828 0.552029
vt 0.968837 0.552029
vt 0.968837 0.975038
vt 0.545828 0.975038
vt 0.543901 0.534600
vt 0.976965 0.534600
vt 0.976965 0.967664
vt 0.543901 0.967664
vt 0.545828 0.552029
vt 0.968837 0.552029
vt 0.968837 0.975038
vt 0.545828 0.975038
vt 0.545828 0.552029
vt 0.968837 0.552029
vt 0.968837 0.975038
vt 0.545828 0.975038
vt 0.533426 0.040464
vt 0.956436 0.040464
vt 0.956436 0.463473
vt 0.533426 0.463473
vt 0.545828 0.552029
vt 0.968837 0.552029
vt 0.968837 0.975038
vt 0.545828 0.975038
vt 0.545828 0.552029
vt 0.968837 0.552029
vt 0.968837 0.975038
vt 0.545828 0.975038
vt 0.533426 0.040464
vt 0.956436 0.040464
vt 0.956436 0.463473
vt 0.533426 0.463473
vt 0.545828 0.552029
vt 0.968837 0.975038
vt 0.545828 0.975038
vt 0.545828 0.552029
vt 0.968837 0.552029
vt 0.968837 0.975038
vt 0.545828 0.975038
vt 0.533426 0.040464
vt 0.956436 0.040464
vt 0.956436 0.463473
vt 0.533426 0.463473
vt 0.545828 0.552029
vt 0.968837 0.975038
vt 0.545828 0.975038
vt 0.968837 0.552029
vt 0.968837 0.975038
vt 0.545828 0.975038
vt 0.533426 0.040464
vt 0.956436 0.040464
vt 0.956436 0.463473
vt 0.533426 0.463473
vt 0.533426 0.040464
vt 0.956436 0.040464
vt 0.956436 0.463473
vt 0.533426 0.463473
vt 0.533426 0.040464
vt 0.956436 0.040464
vt 0.956436 0.463473
vt 0.533426 0.463473
vt 0.533426 0.040464
vt 0.956436 0.040464
vt 0.956436 0.463473
vt 0.533426 0.463473
vt 0.533426 0.040464
vt 0.956436 0.040464
vt 0.956436 0.463473
vt 0.533426 0.463473
vt 0.533426 0.040464
vt 0.956436 0.040464
vt 0.956436 0.463473
vt 0.533426 0.463473
vt 0.530047 0.037084
vt 0.966016 0.037084
vt 0.966016 0.473053
vt 0.530047 0.473053
vt 0.533426 0.040464
vt 0.956436 0.040464
vt 0.956436 0.463473
vt 0.533426 0.463473
vt 0.533426 0.040464
vt 0.956436 0.040464
vt 0.533426 0.463473
vt 0.533426 0.040464
vt 0.956436 0.040464
vt 0.956436 0.463473
vt 0.533426 0.463473
vt 0.966016 0.037084
vt 0.966016 0.473053
vt 0.530047 0.473053
vt 0.533426 0.040464
vt 0.956436 0.463473
vt 0.533426 0.040464
vt 0.956436 0.040464
vt 0.956436 0.463473
vt 0.533426 0.463473
vt 0.956436 0.040464
vt 0.956436 0.463473
vt 0.961849 0.964950
vt 0.540414 0.964950
vt 0.540414 0.543515
vt 0.961849 0.543515
vt 0.961849 0.964950
vt 0.540414 0.964950
vt 0.067394 0.064933
vt 0.434528 0.064933
vt 0.434528 0.432068
vt 0.067394 0.432068
vt 0.961849 0.543515
vt 0.961849 0.964950
vt 0.540414 0.543515
vt 0.961849 0.543515
vt 0.961849 0.964950
vt 0.540414 0.964950
vt 0.961849 0.543515
vt 0.961849 0.964950
vt 0.540414 0.964950
vt 0.067394 0.064933
vt 0.434528 0.064933
vt 0.067394 0.432068
vt 0.067394 0.064933
vt 0.434528 0.064933
vt 0.434528 0.432068
vt 0.067394 0.432068
vt 0.067394 0.064933
vt 0.434528 0.064933
vt 0.434528 0.432068
vt 0.067394 0.432068
vt 0.067394 0.064933
vt 0.434528 0.432068
vt 0.067394 0.432068
vt 0.540414 0.964950
vt 0.055714 0.561078
vt 0.423420 0.561078
vt 0.423420 0.928784
vt 0.055714 0.928784
vt 0.055714 0.561078
vt 0.423420 0.561078
vt 0.423420 0.928784
vt 0.055714 0.928784
vt 0.055714 0.561078
vt 0.423420 0.561078
vt 0.423420 0.928784
vt 0.055714 0.928784
vt 0.055714 0.561078
vt 0.423420 0.561078
vt 0.423420 0.928784
vt 0.055714 0.928784
vt 0.055714 0.561078
vt 0.423420 0.561078
vt 0.423420 0.928784
vt 0.055714 0.928784
vt 0.055714 0.561078
vt 0.423420 0.561078
vt 0.055714 0.928784
vt 0.423420 0.561078
vt 0.423420 0.928784
vt 0.055714 0.561078
vt 0.423420 0.928784
vt 0.055714 0.928784
vt 0.055714 0.561078
vt 0.423420 0.561078
vt 0.423420 0.928784
vt 0.055714 0.928784
vt 0.055714 0.561078
vt 0.423420 0.561078
vt 0.055714 0.928784
vt 0.114389 0.594950
vt 0.414352 0.594950
vt 0.414352 0.894912
vt 0.114389 0.894912
vt 0.423420 0.928784
vt 0.055714 0.561078
vt 0.423420 0.561078
vt 0.423420 0.928784
vt 0.055714 0.928784
vt 0.545828 0.552029
vt 0.968837 0.552029
vt 0.968837 0.975038
vt 0.545828 0.975038
vt 0.545828 0.552029
vt 0.968837 0.552029
vt 0.968837 0.975038
vt 0.545828 0.975038
vt 0.545828 0.552029
vt 0.968837 0.552029
vt 0.968837 0.975038
vt 0.545828 0.975038
vt 0.545828 0.552029
vt 0.968837 0.552029
vt 0.968837 0.975038
vt 0.545828 0.975038
vt 0.533426 0.040464
vt 0.956436 0.040464
vt 0.956436 0.463473
vt 0.533426 0.463473
vt 0.545828 0.552029
vt 0.968837 0.552029
vt 0.968837 0.975038
vt 0.545828 0.975038
vt 0.545828 0.552029
vt 0.968837 0.975038
vt 0.545828 0.975038
vt 0.545828 0.552029
vt 0.968837 0.552029
vt 0.968837 0.975038
vt 0.545828 0.552029
vt 0.968837 0.552029
vt 0.968837 0.975038
vt 0.545828 0.975038
vt 0.533426 0.040464
vt 0.956436 0.040464
vt 0.956436 0.463473
vt 0.533426 0.463473
vt 0.545828 0.552029
vt 0.968837 0.552029
vt 0.968837 0.975038
vt 0.968837 0.552029
vt 0.968837 0.975038
vt 0.545828 0.975038
vt 0.533426 0.040464
vt 0.956436 0.040464
vt 0.956436 0.463473
vt 0.533426 0.463473
vt 0.533426 0.040464
vt 0.956436 0.040464
vt 0.956436 0.463473
vt 0.533426 0.463473
vt 0.533426 0.040464
vt 0.956436 0.040464
vt 0.956436 0.463473
vt 0.533426 0.463473
vt 0.533426 0.040464
vt 0.956436 0.040464
vt 0.956436 0.463473
vt 0.533426 0.463473
vt 0.533426 0.040464
vt 0.956436 0.040464
vt 0.956436 0.463473
vt 0.533426 0.463473
vt 0.533426 0.040464
vt 0.956436 0.040464
vt 0.956436 0.463473
vt 0.533426 0.463473
vt 0.533426 0.040464
vt 0.956436 0.463473
vt 0.533426 0.463473
vt 0.533426 0.040464
vt 0.956436 0.040464
vt 0.956436 0.463473
vt 0.533426 0.463473
vt 0.533426 0.040464
vt 0.956436 0.040464
vt 0.533426 0.463473
vt 0.533426 0.040464
vt 0.956436 0.040464
vt 0.956436 0.463473
vt 0.533426 0.463473
vt 0.956436 0.040464
vt 0.533426 0.463473
vt 0.533426 0.040464
vt 0.956436 0.463473
vt 0.533426 0.040464
vt 0.956436 0.040464
vt 0.956436 0.463473
vt 0.533426 0.463473
vn 0.0000 1.0000 0.0000
vn -0.0000 0.0000 -1.0000
vn 1.0000 0.0000 -0.0000
vn 0.0000 -1.0000 0.0000
vn -1.0000 0.0000 0.0000
vn 0.0000 -0.4402 0.8979
vn 0.9956 -0.0940 -0.0000
vn 0.0000 0.1531 0.9882
vn 0.0000 0.4402 0.8979
vn -0.4402 0.0000 0.8979
vn 0.4402 0.0000 0.8979
vn 0.9802 0.0000 0.1981
vn -0.0512 0.0000 0.9987
vn 0.0512 0.0000 0.9987
vn -0.0384 -0.0085 0.9992
vn 0.0000 0.0000 1.0000
vn 0.0000 -0.9992 0.0402
vn 0.0000 0.9397 0.3421
vn -0.9802 0.0000 0.1981
vn -0.9478 -0.2494 0.1987
vn 0.0384 -0.0085 0.9992
vn 0.0000 -0.1936 0.9811
vn 0.0000 -0.9598 0.2807
vn 0.9478 -0.2494 0.1987
vn 0.0000 0.9999 -0.0101
vn 0.9996 0.0291 -0.0000
vn 0.9989 0.0000 0.0461
vn 0.9970 0.0000 -0.0771
vn -0.9986 0.0529 0.0000
vn 0.9986 0.0529 -0.0000
vn -0.9990 -0.0454 0.0000
vn -0.0599 0.9982 0.0000
vn 0.0599 -0.9982 0.0000
vn -0.0272 0.0000 0.9996
vn 0.0454 -0.9990 0.0000
vn 0.0272 0.0000 -0.9996
vn -0.0454 0.9990 0.0000
vn -0.0271 -0.0012 0.9996
vn 0.0271 0.0012 -0.9996
vn 0.9990 0.0454 0.0000
vn -0.9956 -0.0940 0.0000
vn -0.9996 0.0291 0.0000
vn -0.9989 0.0000 0.0461
vn -0.9970 0.0000 -0.0771
vn 0.9990 -0.0454 0.0000
vn 0.0599 0.9982 0.0000
vn -0.0599 -0.9982 0.0000
vn 0.0272 0.0000 0.9996
vn -0.0454 -0.9990 0.0000
vn -0.0272 0.0000 -0.9996
vn 0.0454 0.9990 0.0000
vn 0.0271 -0.0012 0.9996
vn -0.0271 0.0012 -0.9996
vn -0.9990 0.0454 0.0000
usemtl Material
s off
f 5/1/1 2/2/1 45/3/1 46/4/1
f 74/5/2 3/6/2 30/7/2 29/8/2
f 74/5/3 5/9/3 4/10/3 73/11/3
f 73/12/4 75/13/4 3/14/4 74/15/4
f 75/16/5 1/17/5 2/18/5 3/19/5
f 76/20/6 86/21/6 7/22/6 6/23/6
f 4/24/1 1/25/1 77/26/1 85/27/1
f 4/24/7 85/28/7 17/29/7 15/30/7
f 78/31/8 8/32/8 10/33/8 80/34/8
f 85/35/9 77/36/9 8/37/9 78/38/9
f 77/39/10 76/40/10 6/41/10 8/42/10
f 86/43/11 85/28/11 78/44/11 7/45/11
f 9/46/12 80/47/12 81/48/12
f 8/49/13 6/50/13 79/51/13 10/52/13
f 7/53/14 78/54/14 80/55/14 9/56/14
f 79/57/15 6/50/15 13/58/15 11/59/15
f 9/60/16 79/61/16 11/62/16 14/63/16
f 79/64/17 9/65/17 81/48/17
f 80/66/18 10/67/18 81/48/18
f 10/68/19 79/69/19 81/48/19
f 11/70/20 13/71/20 82/72/20
f 7/53/21 9/73/21 14/74/21 12/75/21
f 6/76/22 7/77/22 12/78/22 13/79/22
f 13/80/23 12/81/23 82/72/23
f 12/82/24 14/83/24 82/72/24
f 14/84/25 11/85/25 82/72/25
f 15/86/1 17/87/1 21/88/1 19/89/1
f 86/43/26 73/90/26 16/91/26 18/92/26
f 73/93/27 4/94/27 15/95/27 16/96/27
f 85/35/28 86/21/28 18/97/28 17/98/28
f 20/99/3 19/100/3 21/88/3 22/101/3
f 17/102/16 18/103/16 22/104/16 21/105/16
f 16/106/2 15/107/2 19/108/2 20/109/2
f 18/110/4 16/111/4 20/112/4 22/101/4
f 96/113/4 93/114/4 97/115/4 23/116/4
f 2/117/2 5/9/2 95/118/2 94/119/2
f 3/120/2 2/121/2 94/122/2 93/123/2
f 5/124/2 74/125/2 96/126/2 95/127/2
f 97/128/5 98/129/5 26/130/5 99/131/5
f 94/132/1 95/133/1 24/134/1 98/135/1
f 95/136/3 96/137/3 23/138/3 24/139/3
f 99/140/2 26/141/2 100/142/2 25/143/2
f 26/144/5 98/129/5 27/145/5 102/146/5
f 24/147/3 23/148/3 25/149/3 100/150/3
f 23/151/4 97/152/4 99/153/4 25/143/4
f 27/154/1 101/155/1 28/156/1 102/146/1
f 100/157/2 26/141/2 102/158/2 28/159/2
f 98/160/16 24/161/16 101/162/16 27/163/16
f 24/147/3 100/164/3 28/156/3 101/165/3
f 30/166/29 32/167/29 36/168/29 34/169/29
f 96/170/2 74/125/2 29/171/2 31/172/2
f 93/173/2 96/174/2 31/175/2 32/176/2
f 3/120/2 93/177/2 32/178/2 30/179/2
f 34/180/29 36/181/29 40/182/29 38/183/29
f 29/184/4 30/185/4 34/186/4 33/187/4
f 31/188/30 29/189/30 33/190/30 35/191/30
f 32/192/1 31/193/1 35/194/1 36/195/1
f 37/196/2 38/197/2 40/182/2 39/198/2
f 34/180/5 38/197/5 44/199/5 42/200/5
f 35/201/30 33/202/30 37/203/30 39/198/30
f 36/204/1 35/205/1 39/206/1 40/207/1
f 41/208/4 42/209/4 44/199/4 43/210/4
f 33/211/16 34/212/16 42/213/16 41/214/16
f 37/196/3 33/202/3 41/215/3 43/210/3
f 38/216/2 37/217/2 43/218/2 44/219/2
f 46/220/2 45/221/2 49/222/2 50/223/2
f 4/224/1 5/225/1 46/226/1 48/227/1
f 2/228/1 1/229/1 47/230/1 45/231/1
f 1/232/1 4/233/1 48/234/1 47/235/1
f 51/236/16 52/237/16 56/238/16 55/239/16
f 47/240/16 48/241/16 52/242/16 51/243/16
f 45/244/5 47/245/5 51/246/5 49/247/5
f 48/248/3 46/249/3 50/250/3 52/251/3
f 55/252/1 56/253/1 54/254/1 53/255/1
f 49/256/5 51/257/5 55/258/5 53/259/5
f 56/260/16 52/237/16 58/261/16 60/262/16
f 50/263/2 49/264/2 53/265/2 54/266/2
f 57/267/2 59/268/2 63/269/2 61/270/2
f 54/271/1 56/253/1 60/272/1 59/273/1
f 50/263/2 54/274/2 59/275/2 57/276/2
f 52/277/4 50/278/4 57/279/4 58/280/4
f 63/281/31 64/282/31 70/283/31 69/284/31
f 59/285/32 60/286/32 64/287/32 63/288/32
f 60/289/16 58/290/16 62/291/16 64/292/16
f 58/293/33 57/294/33 61/295/33 62/296/33
f 66/297/3 65/298/3 67/299/3 68/300/3
f 64/301/34 62/302/34 66/303/34 68/304/34
f 62/305/35 61/306/35 65/307/35 66/308/35
f 61/309/36 63/310/36 67/299/36 65/311/36
f 69/312/37 70/313/37 72/314/37 71/315/37
f 64/301/38 68/316/38 72/317/38 70/318/38
f 67/319/39 63/310/39 69/320/39 71/315/39
f 68/321/40 67/322/40 71/323/40 72/324/40
f 3/120/2 103/325/2 104/326/2 74/15/2
f 73/93/4 86/21/4 76/327/4 75/328/4
f 1/329/41 83/330/41 87/331/41 77/332/41
f 83/333/1 89/334/1 91/335/1 87/336/1
f 76/20/42 88/337/42 84/338/42 75/328/42
f 75/339/43 84/340/43 83/341/43 1/342/43
f 77/39/44 87/343/44 88/344/44 76/345/44
f 90/346/5 92/347/5 91/335/5 89/348/5
f 87/349/16 91/350/16 92/351/16 88/352/16
f 84/353/2 90/354/2 89/355/2 83/356/2
f 88/357/4 92/347/4 90/358/4 84/359/4
f 94/132/5 98/129/5 97/115/5 93/360/5
f 104/361/30 108/362/30 110/363/30 106/364/30
f 108/365/30 112/366/30 114/367/30 110/368/30
f 103/369/4 107/370/4 108/371/4 104/372/4
f 105/373/29 109/374/29 107/375/29 103/376/29
f 106/377/1 110/378/1 109/379/1 105/380/1
f 111/381/2 113/382/2 114/367/2 112/383/2
f 108/365/3 116/384/3 118/385/3 112/383/3
f 109/386/29 113/382/29 111/387/29 107/388/29
f 110/389/1 114/390/1 113/391/1 109/392/1
f 115/393/4 117/394/4 118/385/4 116/395/4
f 107/396/16 115/397/16 116/398/16 108/399/16
f 111/381/5 117/394/5 115/400/5 107/388/5
f 112/401/2 118/402/2 117/403/2 111/404/2
f 120/405/2 124/406/2 123/407/2 119/408/2
f 125/409/16 129/410/16 130/411/16 126/412/16
f 121/413/16 125/414/16 126/415/16 122/416/16
f 119/417/3 123/418/3 125/419/3 121/420/3
f 122/421/5 126/422/5 124/423/5 120/424/5
f 129/425/1 127/426/1 128/427/1 130/428/1
f 123/429/3 127/426/3 129/430/3 125/431/3
f 130/432/16 134/433/16 132/434/16 126/412/16
f 124/435/2 128/436/2 127/437/2 123/438/2
f 131/439/2 135/440/2 137/441/2 133/442/2
f 128/443/1 133/444/1 134/445/1 130/428/1
f 124/435/2 131/446/2 133/447/2 128/448/2
f 126/449/4 132/450/4 131/451/4 124/452/4
f 137/453/45 143/454/45 144/455/45 138/456/45
f 133/457/46 137/458/46 138/459/46 134/460/46
f 134/461/16 138/462/16 136/463/16 132/464/16
f 132/465/47 136/466/47 135/467/47 131/468/47
f 140/469/5 142/470/5 141/471/5 139/472/5
f 138/473/48 142/470/48 140/474/48 136/475/48
f 136/476/49 140/477/49 139/478/49 135/479/49
f 135/480/50 139/481/50 141/471/50 137/482/50
f 143/483/51 145/484/51 146/485/51 144/486/51
f 138/473/52 144/487/52 146/485/52 142/488/52
f 141/489/53 145/484/53 143/490/53 137/482/53
f 142/491/54 146/492/54 145/493/54 141/494/54
