# Blender v2.81 (sub 16) OBJ File: ''
# www.blender.org
mtllib directionIndicator.mtl
g DirectionIndicator
v 1.000000 0.340327 4.063505
v 1.000000 -0.345404 4.063505
v 0.000000 0.340327 6.063505
v 0.000000 -0.345404 6.063505
v -1.000000 0.340327 4.063505
v -1.000000 -0.345404 4.063505
vt 0.625000 0.500000
vt 0.875000 0.500000
vt 0.625000 0.750000
vt 0.375000 0.000000
vt 0.625000 0.000000
vt 0.625000 0.250000
vt 0.375000 0.250000
vt 0.125000 0.500000
vt 0.375000 0.500000
vt 0.125000 0.750000
vt 0.375000 0.750000
vn 0.0000 1.0000 0.0000
vn -0.8944 0.0000 0.4472
vn 0.0000 -1.0000 0.0000
vn 0.8944 0.0000 0.4472
vn 0.0000 0.0000 -1.0000
usemtl Material
s off
f 1/1/1 5/2/1 3/3/1
f 4/4/2 3/5/2 5/6/2 6/7/2
f 6/8/3 2/9/3 4/10/3
f 2/9/4 1/1/4 3/3/4 4/11/4
f 6/7/5 5/6/5 1/1/5 2/9/5
