# Blender v2.81 (sub 16) OBJ File: 'endPointSpinner.blend'
# www.blender.org
mtllib endPointSpinner.mtl
g spinner
v -1.055960 0.337677 -1.044318
v -1.055960 -0.254062 -1.044318
v -1.055960 0.337677 1.044318
v -1.055960 -0.254062 1.044318
v -1.442520 -0.254062 0.000000
v -1.442520 0.337677 0.000000
v -0.764959 0.363627 0.831174
v -1.072252 0.363627 0.001003
v -0.764959 0.363627 -0.829168
v -0.532486 0.120139 0.670176
v -0.559093 0.115828 -0.010570
v -0.532486 0.120139 -0.687541
v -1.055960 0.109290 1.044318
v -1.055960 0.109290 -1.044318
v -1.442520 0.109290 0.000000
v -1.055960 -0.011836 -1.044318
v -1.442520 -0.011836 0.000000
v -1.055960 -0.011836 1.044318
v -1.249240 0.337677 -0.522159
v -1.249240 -0.254062 -0.522159
v -0.918606 0.363627 -0.414083
v -0.541204 0.120139 -0.348112
v -1.249240 0.109290 -0.522159
v -1.249240 -0.011836 -0.522159
v -1.249240 -0.254062 0.522159
v -1.249240 0.337677 0.522159
v -0.918606 0.363627 0.416088
v -0.541204 0.120139 0.330747
v -1.249240 0.109290 0.522159
v -1.249240 -0.011836 0.522159
v -1.249240 0.109290 0.522159
v -1.442520 0.109290 0.000000
v -1.442520 -0.011836 0.000000
v -1.249240 -0.011836 0.522159
v -1.249240 0.109290 -0.522159
v -1.249240 -0.011836 -0.522159
v -2.836514 0.109290 0.522159
v -3.029794 0.109290 0.000000
v -3.029794 -0.011836 0.000000
v -2.836514 -0.011836 0.522159
v -2.836514 0.109290 -0.522159
v -2.836514 -0.011836 -0.522159
v 1.055960 0.337677 -1.044318
v 1.055960 -0.254062 -1.044318
v 1.055960 0.337677 1.044318
v 1.055960 -0.254062 1.044318
v 1.442520 -0.254062 0.000000
v 1.442520 0.337677 0.000000
v 0.000000 -0.226573 -1.425981
v 0.000000 0.365165 1.425981
v 0.000000 -0.226573 1.425981
v 0.000000 0.365165 -1.425981
v 0.000000 -0.254062 0.000000
v 0.000000 0.385479 1.134573
v 0.764959 0.363627 0.831174
v 1.072252 0.363627 0.001003
v 0.764959 0.363627 -0.829168
v 0.000000 0.385479 -1.132567
v 0.000000 0.121379 0.687391
v 0.532486 0.120139 0.670176
v 0.559093 0.115828 -0.010570
v 0.532486 0.120139 -0.687541
v 0.000000 0.121379 -0.704756
v 0.000000 0.115828 -0.010570
v 1.055960 0.109290 1.044318
v 1.055960 0.109290 -1.044318
v 1.442520 0.109290 0.000000
v 0.000000 0.136778 -1.425981
v 0.000000 0.136778 1.425981
v 1.055960 -0.011836 -1.044318
v 1.442520 -0.011836 0.000000
v 0.000000 0.015653 -1.425981
v 0.000000 0.015653 1.425981
v 1.055960 -0.011836 1.044318
v 1.249240 0.337677 -0.522159
v 1.249240 -0.254062 -0.522159
v 0.000000 -0.240317 -0.712990
v 0.918606 0.363627 -0.414083
v 0.541204 0.120139 -0.348112
v 0.000000 0.120759 -0.356719
v 1.249240 0.109290 -0.522159
v 1.249240 -0.011836 -0.522159
v 1.249240 -0.254062 0.522159
v 1.249240 0.337677 0.522159
v 0.000000 -0.240317 0.712990
v 0.918606 0.363627 0.416088
v 0.541204 0.120139 0.330747
v 0.000000 0.120759 0.339354
v 1.249240 0.109290 0.522159
v 1.249240 -0.011836 0.522159
v 1.249240 0.109290 0.522159
v 1.442520 0.109290 0.000000
v 1.442520 -0.011836 0.000000
v 1.249240 -0.011836 0.522159
v 1.249240 0.109290 -0.522159
v 1.249240 -0.011836 -0.522159
v 2.836514 0.109290 0.522159
v 3.029794 0.109290 0.000000
v 3.029794 -0.011836 0.000000
v 2.836514 -0.011836 0.522159
v 2.836514 0.109290 -0.522159
v 2.836514 -0.011836 -0.522159
vt 0.625000 1.000000
vt 0.625000 0.875000
vt 0.625000 0.875000
vt 0.625000 1.000000
vt 0.500000 0.875000
vt 0.500000 1.000000
vt 0.500000 0.187500
vt 0.625000 0.187500
vt 0.625000 0.250000
vt 0.500000 0.250000
vt 0.500000 0.062500
vt 0.625000 0.062500
vt 0.625000 0.125000
vt 0.500000 0.125000
vt 0.125000 0.562500
vt 0.250000 0.562500
vt 0.250000 0.625000
vt 0.125000 0.625000
vt 0.625000 0.375000
vt 0.500000 0.375000
vt 0.125000 0.687500
vt 0.250000 0.687500
vt 0.250000 0.750000
vt 0.125000 0.750000
vt 0.625000 0.250000
vt 0.625000 0.375000
vt 0.625000 0.062500
vt 0.625000 0.000000
vt 0.625000 0.000000
vt 0.625000 0.062500
vt 0.625000 0.875000
vt 0.625000 1.000000
vt 0.625000 0.187500
vt 0.625000 0.125000
vt 0.625000 0.125000
vt 0.625000 0.187500
vt 0.625000 0.000000
vt 0.750000 0.687500
vt 0.875000 0.687500
vt 0.875000 0.750000
vt 0.750000 0.750000
vt 0.750000 0.562500
vt 0.875000 0.562500
vt 0.875000 0.625000
vt 0.750000 0.625000
vt 0.625000 0.250000
vt 0.625000 0.375000
vt 0.479770 0.250000
vt 0.479770 0.375000
vt 0.500000 0.187500
vt 0.500000 0.125000
vt 0.479770 0.187500
vt 0.479770 0.875000
vt 0.479770 1.000000
vt 0.375000 0.875000
vt 0.375000 1.000000
vt 0.375000 0.187500
vt 0.375000 0.250000
vt 0.375000 0.062500
vt 0.479770 0.062500
vt 0.479770 0.125000
vt 0.375000 0.125000
vt 0.375000 0.375000
vt 0.500000 0.062500
vt 0.750000 0.500000
vt 0.875000 0.500000
vt 0.125000 0.500000
vt 0.250000 0.500000
vt 0.375000 0.000000
vt 0.479770 0.000000
vt 0.500000 0.000000
vt 0.479770 0.062500
vt 0.500000 0.062500
vt 0.479770 0.062500
vt 0.500000 0.187500
vt 0.500000 0.125000
vt 0.479770 0.187500
vt 0.479770 0.125000
vt 0.479770 0.125000
vt 0.479770 0.187500
vt 0.625000 1.000000
vt 0.625000 1.000000
vt 0.500000 1.000000
vt 0.500000 0.187500
vt 0.500000 0.250000
vt 0.625000 0.250000
vt 0.625000 0.187500
vt 0.500000 0.062500
vt 0.500000 0.125000
vt 0.625000 0.125000
vt 0.625000 0.062500
vt 0.125000 0.562500
vt 0.125000 0.625000
vt 0.125000 0.687500
vt 0.125000 0.750000
vt 0.625000 0.250000
vt 0.625000 0.062500
vt 0.625000 0.062500
vt 0.625000 0.000000
vt 0.625000 0.000000
vt 0.625000 1.000000
vt 0.625000 0.187500
vt 0.625000 0.187500
vt 0.625000 0.125000
vt 0.625000 0.125000
vt 0.625000 0.000000
vt 0.875000 0.750000
vt 0.875000 0.687500
vt 0.875000 0.625000
vt 0.875000 0.562500
vt 0.625000 0.250000
vt 0.479770 0.250000
vt 0.500000 0.125000
vt 0.500000 0.187500
vt 0.479770 0.187500
vt 0.479770 1.000000
vt 0.375000 1.000000
vt 0.375000 0.187500
vt 0.375000 0.250000
vt 0.375000 0.062500
vt 0.375000 0.125000
vt 0.479770 0.125000
vt 0.479770 0.062500
vt 0.500000 0.062500
vt 0.875000 0.500000
vt 0.125000 0.500000
vt 0.375000 0.000000
vt 0.479770 0.000000
vt 0.500000 0.000000
vt 0.479770 0.062500
vt 0.479770 0.062500
vt 0.500000 0.062500
vt 0.500000 0.125000
vt 0.500000 0.187500
vt 0.479770 0.187500
vt 0.479770 0.125000
vt 0.479770 0.125000
vt 0.479770 0.187500
vn -0.0504 0.9968 0.0623
vn -0.3399 -0.0000 0.9405
vn -0.9378 0.0000 -0.3471
vn -0.9378 0.0000 0.3471
vn 0.0044 -0.9999 -0.0104
vn -0.3399 0.0000 -0.9405
vn 0.0157 -0.9998 0.0087
vn -0.0503 0.9968 -0.0619
vn 0.5873 0.7994 -0.1264
vn 0.1352 0.7855 -0.6039
vn 0.4746 0.8729 0.1132
vn -0.0698 0.9972 -0.0258
vn -0.0700 0.9972 0.0259
vn -0.0017 1.0000 -0.0009
vn -0.0005 0.9999 0.0135
vn 0.1411 0.7669 0.6260
vn 0.0000 0.0000 1.0000
vn -0.0017 1.0000 0.0009
vn 0.5920 0.7958 0.1274
vn 0.0157 -0.9998 -0.0087
vn -0.0005 0.9999 -0.0134
vn 0.4707 0.8752 -0.1117
vn 0.0044 -0.9999 0.0104
vn 0.0000 1.0000 0.0000
vn 0.0000 -1.0000 -0.0000
vn 0.0000 0.0000 -1.0000
vn 0.0504 0.9968 0.0623
vn 0.3399 -0.0000 0.9405
vn 0.9378 0.0000 -0.3471
vn 0.9378 0.0000 0.3471
vn -0.0044 -0.9999 -0.0104
vn 0.3399 0.0000 -0.9405
vn -0.0157 -0.9998 0.0087
vn 0.0503 0.9968 -0.0619
vn -0.5873 0.7994 -0.1264
vn -0.1352 0.7855 -0.6039
vn -0.4746 0.8729 0.1132
vn 0.0698 0.9972 -0.0258
vn 0.0700 0.9972 0.0259
vn 0.0017 1.0000 -0.0009
vn 0.0005 0.9999 0.0135
vn -0.1411 0.7669 0.6260
vn 0.0017 1.0000 0.0009
vn -0.5920 0.7958 0.1274
vn -0.0157 -0.9998 -0.0087
vn 0.0005 0.9999 -0.0134
vn -0.4707 0.8752 -0.1117
vn -0.0044 -0.9999 0.0104
usemtl Material
s off
f 3/1/1 50/2/1 54/3/1 7/4/1
f 69/5/2 50/2/2 3/1/2 13/6/2
f 23/7/3 19/8/3 1/9/3 14/10/3
f 29/11/4 26/12/4 6/13/4 15/14/4
f 20/15/5 77/16/5 53/17/5 5/18/5
f 14/10/6 1/9/6 52/19/6 68/20/6
f 25/21/7 85/22/7 51/23/7 4/24/7
f 52/19/8 1/9/8 9/25/8 58/26/8
f 27/27/9 7/28/9 10/29/9 28/30/9
f 7/4/10 54/3/10 59/31/10 10/32/10
f 21/33/11 8/34/11 11/35/11 22/36/11
f 19/8/12 6/13/12 8/34/12 21/33/12
f 26/12/13 3/37/13 7/28/13 27/27/13
f 88/38/14 28/39/14 10/40/14 59/41/14
f 80/42/15 22/43/15 11/44/15 64/45/15
f 58/26/16 9/25/16 12/46/16 63/47/16
f 16/48/6 14/10/6 68/20/6 72/49/6
f 15/14/17 23/7/17 35/50/17 32/51/17
f 24/52/3 23/7/3 14/10/3 16/48/3
f 73/53/2 69/5/2 13/6/2 18/54/2
f 51/55/2 73/53/2 18/54/2 4/56/2
f 20/57/3 24/52/3 16/48/3 2/58/3
f 25/59/4 30/60/4 17/61/4 5/62/4
f 2/58/6 16/48/6 72/49/6 49/63/6
f 5/62/3 17/61/3 24/52/3 20/57/3
f 29/11/17 15/14/17 32/51/17 31/64/17
f 63/65/18 12/66/18 22/43/18 80/42/18
f 1/9/12 19/8/12 21/33/12 9/25/12
f 9/25/19 21/33/19 22/36/19 12/46/19
f 2/67/20 49/68/20 77/16/20 20/15/20
f 15/14/3 6/13/3 19/8/3 23/7/3
f 4/69/4 18/70/4 30/60/4 25/59/4
f 18/70/4 13/71/4 29/11/4 30/60/4
f 64/45/21 11/44/21 28/39/21 88/38/21
f 6/13/13 26/12/13 27/27/13 8/34/13
f 8/34/22 27/27/22 28/30/22 11/35/22
f 5/18/23 53/17/23 85/22/23 25/21/23
f 13/71/4 3/37/4 26/12/4 29/11/4
f 34/72/17 31/64/17 37/73/17 40/74/17
f 32/51/24 35/50/24 41/75/24 38/76/24
f 23/7/17 24/52/17 36/77/17 35/50/17
f 30/60/17 29/11/17 31/64/17 34/72/17
f 24/52/17 17/61/17 33/78/17 36/77/17
f 17/61/17 30/60/17 34/72/17 33/78/17
f 40/74/4 37/73/4 38/76/4 39/79/4
f 39/79/3 38/76/3 41/75/3 42/80/3
f 36/77/25 33/78/25 39/79/25 42/80/25
f 33/78/25 34/72/25 40/74/25 39/79/25
f 31/64/24 32/51/24 38/76/24 37/73/24
f 35/50/26 36/77/26 42/80/26 41/75/26
f 45/81/27 55/82/27 54/3/27 50/2/27
f 69/5/28 65/83/28 45/81/28 50/2/28
f 81/84/29 66/85/29 43/86/29 75/87/29
f 89/88/30 67/89/30 48/90/30 84/91/30
f 76/92/31 47/93/31 53/17/31 77/16/31
f 66/85/32 68/20/32 52/19/32 43/86/32
f 83/94/33 46/95/33 51/23/33 85/22/33
f 52/19/34 58/26/34 57/96/34 43/86/34
f 86/97/35 87/98/35 60/99/35 55/100/35
f 55/82/36 60/101/36 59/31/36 54/3/36
f 78/102/37 79/103/37 61/104/37 56/105/37
f 75/87/38 78/102/38 56/105/38 48/90/38
f 84/91/39 86/97/39 55/100/39 45/106/39
f 88/38/40 59/41/40 60/107/40 87/108/40
f 80/42/41 64/45/41 61/109/41 79/110/41
f 58/26/42 63/47/42 62/111/42 57/96/42
f 70/112/32 72/49/32 68/20/32 66/85/32
f 67/89/17 92/113/17 95/114/17 81/84/17
f 82/115/29 70/112/29 66/85/29 81/84/29
f 73/53/28 74/116/28 65/83/28 69/5/28
f 51/55/28 46/117/28 74/116/28 73/53/28
f 76/118/29 44/119/29 70/112/29 82/115/29
f 83/120/30 47/121/30 71/122/30 90/123/30
f 44/119/32 49/63/32 72/49/32 70/112/32
f 47/121/29 76/118/29 82/115/29 71/122/29
f 89/88/17 91/124/17 92/113/17 67/89/17
f 63/65/43 80/42/43 79/110/43 62/125/43
f 43/86/38 57/96/38 78/102/38 75/87/38
f 57/96/44 62/111/44 79/103/44 78/102/44
f 44/126/45 76/92/45 77/16/45 49/68/45
f 67/89/29 81/84/29 75/87/29 48/90/29
f 46/127/30 83/120/30 90/123/30 74/128/30
f 74/128/30 90/123/30 89/88/30 65/129/30
f 64/45/46 88/38/46 87/108/46 61/109/46
f 48/90/39 56/105/39 86/97/39 84/91/39
f 56/105/47 61/104/47 87/98/47 86/97/47
f 47/93/48 83/94/48 85/22/48 53/17/48
f 65/129/30 89/88/30 84/91/30 45/106/30
f 94/130/17 100/131/17 97/132/17 91/124/17
f 92/113/24 98/133/24 101/134/24 95/114/24
f 81/84/17 95/114/17 96/135/17 82/115/17
f 90/123/17 94/130/17 91/124/17 89/88/17
f 82/115/17 96/135/17 93/136/17 71/122/17
f 71/122/17 93/136/17 94/130/17 90/123/17
f 100/131/30 99/137/30 98/133/30 97/132/30
f 99/137/29 102/138/29 101/134/29 98/133/29
f 96/135/25 102/138/25 99/137/25 93/136/25
f 93/136/25 99/137/25 100/131/25 94/130/25
f 91/124/24 97/132/24 98/133/24 92/113/24
f 95/114/26 101/134/26 102/138/26 96/135/26
