# Blender v2.81 (sub 16) OBJ File: ''
# www.blender.org
mtllib ship.mtl
o Cube
v -0.139272 0.500000 0.051723
v 0.138016 0.500000 0.051723
v -0.139272 -0.500000 0.051723
v 0.138016 -0.500000 0.051723
v -0.139272 0.000000 -0.500000
v 0.138015 0.000000 -0.500000
v -0.139272 0.500000 0.646728
v 0.138016 0.500000 0.646728
v -0.139272 -0.500000 0.646728
v 0.138016 -0.500000 0.646728
vt 0.625000 0.500000
vt 0.875000 0.750000
vt 0.625000 0.750000
vt 0.375000 0.750000
vt 0.625000 1.000000
vt 0.375000 1.000000
vt 0.125000 0.500000
vt 0.375000 0.500000
vt 0.375000 0.500000
vt 0.375000 0.750000
vt 0.375000 0.250000
vt 0.625000 0.250000
vt 0.625000 0.500000
vt 0.625000 0.750000
vn -1.0000 0.0000 0.0000
vn -0.0000 -0.7410 -0.6715
vn 1.0000 0.0000 -0.0000
vn -0.0000 0.7410 -0.6715
vn 0.0000 -0.0000 1.0000
vn 0.0000 1.0000 0.0000
vn -0.0000 -1.0000 -0.0000
usemtl Material
s off
f 1/1/1 5/2/1 3/3/1
f 4/4/2 3/3/2 5/5/2 6/6/2
f 6/7/3 2/8/3 4/4/3
f 4/4/3 2/8/3 8/9/3 10/10/3
f 6/11/4 5/12/4 1/1/4 2/8/4
f 8/9/5 7/13/5 9/14/5 10/10/5
f 2/8/6 1/1/6 7/13/6 8/9/6
f 1/1/1 3/3/1 9/14/1 7/13/1
f 3/3/7 4/4/7 10/10/7 9/14/7
